<svg xmlns="http://www.w3.org/2000/svg" id="Layer_1" x="0" y="0" version="1.1" viewBox="0 0 29 29" xml:space="preserve"><path d="M14.608 26.354c-6.893 0-12.5-5.607-12.5-12.5 0-4.682 2.589-8.934 6.757-11.095a.998.998 0 0 1 1.442 1.078 10.595 10.595 0 0 0-.198 2.017c0 5.79 4.71 10.5 10.5 10.5 1.691 0 3.313-.396 4.822-1.18a1 1 0 0 1 1.443 1.079c-1.14 5.852-6.298 10.101-12.266 10.101zM8.111 5.612a10.45 10.45 0 0 0-4.003 8.241c0 5.79 4.71 10.5 10.5 10.5 4.336 0 8.163-2.669 9.736-6.571-1.202.38-2.453.571-3.736.571-6.893 0-12.5-5.607-12.5-12.5 0-.08.001-.161.003-.241z"/></svg>